#tb 0: 1/48000
#media_type 0: audio
#codec_id 0: eac3
#sample_rate 0: 48000
#channel_layout 0: 60f
#channel_layout_name 0: 5.1(side)
0,          0,          0,     1536,     1024, 0x2a56e574, S=1,        4, 0x00000000
0,       1536,       1536,     1536,     1024, 0x055df18f
0,       3072,       3072,     1536,     1024, 0x2030e3d1
0,       4608,       4608,     1536,     1024, 0x1d84e6d1
0,       6144,       6144,     1536,     1024, 0xd13cf965
0,       7680,       7680,     1536,     1024, 0x8b20fc56
0,       9216,       9216,     1536,     1024, 0xc942f304
0,      10752,      10752,     1536,     1024, 0x29c40d92
0,      12288,      12288,     1536,     1024, 0xa3e5ed75
0,      13824,      13824,     1536,     1024, 0xdf3ff3f5
0,      15360,      15360,     1536,     1024, 0x14d6e8fd
0,      16896,      16896,     1536,     1024, 0x1abaf108
0,      18432,      18432,     1536,     1024, 0x0118e617
0,      19968,      19968,     1536,     1024, 0xa879f227
0,      21504,      21504,     1536,     1024, 0xb19cf385
0,      23040,      23040,     1536,     1024, 0x7831dd07
0,      24576,      24576,     1536,     1024, 0xc3f9f4fb
0,      26112,      26112,     1536,     1024, 0x628bf77e
0,      27648,      27648,     1536,     1024, 0x826de875
0,      29184,      29184,     1536,     1024, 0x0fa1eeff
0,      30720,      30720,     1536,     1024, 0xa6bcfa53
0,      32256,      32256,     1536,     1024, 0x6edee378
0,      33792,      33792,     1536,     1024, 0xa4b9e5b4
0,      35328,      35328,     1536,     1024, 0xb26dfa72
0,      36864,      36864,     1536,     1024, 0x10c2e81d
0,      38400,      38400,     1536,     1024, 0x1765d7bd
0,      39936,      39936,     1536,     1024, 0x23cbebf4
0,      41472,      41472,     1536,     1024, 0xfbd4ff1d
0,      43008,      43008,     1536,     1024, 0x2683f22b
0,      44544,      44544,     1536,     1024, 0x00baf4c6
0,      46080,      46080,     1536,     1024, 0x99e0edcd
0,      47616,      47616,     1536,     1024, 0x78e60506
